# xmcd CD database file
#
# Track frame offsets:
#	150
#	39877
#	58824
#	83964
#	111112
#	133667
#	154649
#	169772
#	196960
#	252009
#	273220
#	292968
#
# Disc length: 4264 seconds
#
# Revision: 0
# Processed by: cddbd v1.5.2PL0 Copyright (c) Steve Scherf et al.
# Submitted via: CDex 1.51
#
DISCID=9d10a60c
DTITLE=The Purple Cats - Very Live At the Black Pearl
DYEAR=2010
DGENRE=Blues
TTITLE0=Chicken Shack
TTITLE1=Got Love If You Want It
TTITLE2=Serve You Right To Suffer
TTITLE3=Rockinitis
TTITLE4=Sittin Here In La La Waitin' On My Ya Ya
TTITLE5=Goodbye Blues
TTITLE6=Purple Cats Jump
TTITLE7=I Didn't See Nothin'
TTITLE8=Hush Hush
TTITLE9=Checkin' on my Baby
TTITLE10=Nobody But You
TTITLE11=Who Do You Love?
EXTD=YEAR: 2010
EXTT0=
EXTT1=
EXTT2=
EXTT3=
EXTT4=
EXTT5=
EXTT6=
EXTT7=
EXTT8=
EXTT9=
EXTT10=
EXTT11=
PLAYORDER=
